<mxfile host="app.diagrams.net" modified="2023-03-29T21:28:42.923Z" agent="Mozilla/5.0 (Windows NT 10.0; Win64; x64) AppleWebKit/537.36 (KHTML, like Gecko) Chrome/111.0.0.0 Safari/537.36" etag="qrZ4idzuADx-GwkYmC-2" version="21.1.2" type="device">
  <diagram name="Página-1" id="vw9rdg9chHLmDJhuTQ13">
    <mxGraphModel dx="1050" dy="1710" grid="1" gridSize="10" guides="1" tooltips="1" connect="1" arrows="1" fold="1" page="1" pageScale="1" pageWidth="827" pageHeight="1169" math="0" shadow="0">
      <root>
        <mxCell id="0" />
        <mxCell id="1" parent="0" />
        <mxCell id="6Lvk2C39D4jYc-NGKxXy-3" value="INICIO" style="ellipse;whiteSpace=wrap;html=1;" parent="1" vertex="1">
          <mxGeometry x="311" y="-40" width="206" height="70" as="geometry" />
        </mxCell>
        <mxCell id="6Lvk2C39D4jYc-NGKxXy-4" value="FIN" style="ellipse;whiteSpace=wrap;html=1;" parent="1" vertex="1">
          <mxGeometry x="311" y="710" width="206" height="70" as="geometry" />
        </mxCell>
        <mxCell id="6Lvk2C39D4jYc-NGKxXy-5" value="" style="endArrow=classic;html=1;rounded=0;exitX=0.5;exitY=1;exitDx=0;exitDy=0;" parent="1" source="6Lvk2C39D4jYc-NGKxXy-3" edge="1">
          <mxGeometry width="50" height="50" relative="1" as="geometry">
            <mxPoint x="390" y="270" as="sourcePoint" />
            <mxPoint x="414" y="70" as="targetPoint" />
          </mxGeometry>
        </mxCell>
        <mxCell id="6Lvk2C39D4jYc-NGKxXy-6" value="edades&lt;br&gt;(turno mañana)" style="shape=parallelogram;perimeter=parallelogramPerimeter;whiteSpace=wrap;html=1;fixedSize=1;" parent="1" vertex="1">
          <mxGeometry x="330" y="160" width="140" height="60" as="geometry" />
        </mxCell>
        <mxCell id="pSAityiDugNrzxSXsubv-1" value="" style="endArrow=classic;html=1;rounded=0;exitX=1;exitY=0.5;exitDx=0;exitDy=0;entryX=0;entryY=0.5;entryDx=0;entryDy=0;" edge="1" parent="1" source="pSAityiDugNrzxSXsubv-22" target="pSAityiDugNrzxSXsubv-4">
          <mxGeometry width="50" height="50" relative="1" as="geometry">
            <mxPoint x="390" y="220" as="sourcePoint" />
            <mxPoint x="680" y="150" as="targetPoint" />
          </mxGeometry>
        </mxCell>
        <mxCell id="pSAityiDugNrzxSXsubv-3" value="" style="endArrow=classic;html=1;rounded=0;exitX=1;exitY=0.5;exitDx=0;exitDy=0;" edge="1" parent="1" source="6Lvk2C39D4jYc-NGKxXy-6" target="pSAityiDugNrzxSXsubv-2">
          <mxGeometry width="50" height="50" relative="1" as="geometry">
            <mxPoint x="460" y="150" as="sourcePoint" />
            <mxPoint x="680" y="150" as="targetPoint" />
          </mxGeometry>
        </mxCell>
        <mxCell id="pSAityiDugNrzxSXsubv-2" value="i&amp;lt;=5" style="rounded=0;whiteSpace=wrap;html=1;" vertex="1" parent="1">
          <mxGeometry x="550" y="170" width="70" height="40" as="geometry" />
        </mxCell>
        <mxCell id="pSAityiDugNrzxSXsubv-4" value="document.write= promedio1" style="shape=document;whiteSpace=wrap;html=1;boundedLbl=1;" vertex="1" parent="1">
          <mxGeometry x="960" y="150" width="120" height="80" as="geometry" />
        </mxCell>
        <mxCell id="pSAityiDugNrzxSXsubv-5" value="edad,promedio, promediomayor" style="rounded=0;whiteSpace=wrap;html=1;" vertex="1" parent="1">
          <mxGeometry x="354" y="70" width="120" height="60" as="geometry" />
        </mxCell>
        <mxCell id="pSAityiDugNrzxSXsubv-6" value="" style="endArrow=classic;html=1;rounded=0;exitX=0.5;exitY=1;exitDx=0;exitDy=0;entryX=0.583;entryY=0.013;entryDx=0;entryDy=0;entryPerimeter=0;" edge="1" parent="1" source="pSAityiDugNrzxSXsubv-5" target="6Lvk2C39D4jYc-NGKxXy-6">
          <mxGeometry width="50" height="50" relative="1" as="geometry">
            <mxPoint x="390" y="270" as="sourcePoint" />
            <mxPoint x="440" y="220" as="targetPoint" />
          </mxGeometry>
        </mxCell>
        <mxCell id="pSAityiDugNrzxSXsubv-7" value="inicio" style="ellipse;whiteSpace=wrap;html=1;" vertex="1" parent="1">
          <mxGeometry x="311" y="-40" width="206" height="70" as="geometry" />
        </mxCell>
        <mxCell id="pSAityiDugNrzxSXsubv-10" value="edades&lt;br&gt;(turno tarde)" style="shape=parallelogram;perimeter=parallelogramPerimeter;whiteSpace=wrap;html=1;fixedSize=1;" vertex="1" parent="1">
          <mxGeometry x="320" y="250" width="140" height="60" as="geometry" />
        </mxCell>
        <mxCell id="pSAityiDugNrzxSXsubv-11" value="" style="endArrow=classic;html=1;rounded=0;exitX=1;exitY=0.5;exitDx=0;exitDy=0;entryX=0;entryY=0.5;entryDx=0;entryDy=0;" edge="1" parent="1" source="pSAityiDugNrzxSXsubv-24" target="pSAityiDugNrzxSXsubv-14">
          <mxGeometry width="50" height="50" relative="1" as="geometry">
            <mxPoint x="380" y="310" as="sourcePoint" />
            <mxPoint x="670" y="240" as="targetPoint" />
          </mxGeometry>
        </mxCell>
        <mxCell id="pSAityiDugNrzxSXsubv-12" value="" style="endArrow=classic;html=1;rounded=0;exitX=1;exitY=0.5;exitDx=0;exitDy=0;" edge="1" parent="1" source="pSAityiDugNrzxSXsubv-10" target="pSAityiDugNrzxSXsubv-13">
          <mxGeometry width="50" height="50" relative="1" as="geometry">
            <mxPoint x="450" y="240" as="sourcePoint" />
            <mxPoint x="670" y="240" as="targetPoint" />
          </mxGeometry>
        </mxCell>
        <mxCell id="pSAityiDugNrzxSXsubv-13" value="i&amp;lt;=6" style="rounded=0;whiteSpace=wrap;html=1;" vertex="1" parent="1">
          <mxGeometry x="550" y="260" width="70" height="40" as="geometry" />
        </mxCell>
        <mxCell id="pSAityiDugNrzxSXsubv-14" value="document.write= promedio2" style="shape=document;whiteSpace=wrap;html=1;boundedLbl=1;" vertex="1" parent="1">
          <mxGeometry x="960" y="240" width="120" height="80" as="geometry" />
        </mxCell>
        <mxCell id="pSAityiDugNrzxSXsubv-15" value="" style="endArrow=classic;html=1;rounded=0;exitX=0.5;exitY=1;exitDx=0;exitDy=0;entryX=0.583;entryY=0.013;entryDx=0;entryDy=0;entryPerimeter=0;" edge="1" parent="1" target="pSAityiDugNrzxSXsubv-10">
          <mxGeometry width="50" height="50" relative="1" as="geometry">
            <mxPoint x="404" y="220" as="sourcePoint" />
            <mxPoint x="430" y="310" as="targetPoint" />
          </mxGeometry>
        </mxCell>
        <mxCell id="pSAityiDugNrzxSXsubv-16" value="edades&lt;br&gt;(turno noche)" style="shape=parallelogram;perimeter=parallelogramPerimeter;whiteSpace=wrap;html=1;fixedSize=1;" vertex="1" parent="1">
          <mxGeometry x="311" y="340" width="140" height="60" as="geometry" />
        </mxCell>
        <mxCell id="pSAityiDugNrzxSXsubv-17" value="" style="endArrow=classic;html=1;rounded=0;exitX=1;exitY=0.5;exitDx=0;exitDy=0;entryX=0;entryY=0.5;entryDx=0;entryDy=0;" edge="1" parent="1" source="pSAityiDugNrzxSXsubv-25" target="pSAityiDugNrzxSXsubv-20">
          <mxGeometry width="50" height="50" relative="1" as="geometry">
            <mxPoint x="371" y="400" as="sourcePoint" />
            <mxPoint x="661" y="330" as="targetPoint" />
          </mxGeometry>
        </mxCell>
        <mxCell id="pSAityiDugNrzxSXsubv-18" value="" style="endArrow=classic;html=1;rounded=0;exitX=1;exitY=0.5;exitDx=0;exitDy=0;" edge="1" parent="1" source="pSAityiDugNrzxSXsubv-16" target="pSAityiDugNrzxSXsubv-19">
          <mxGeometry width="50" height="50" relative="1" as="geometry">
            <mxPoint x="441" y="330" as="sourcePoint" />
            <mxPoint x="661" y="330" as="targetPoint" />
          </mxGeometry>
        </mxCell>
        <mxCell id="pSAityiDugNrzxSXsubv-19" value="i&amp;lt;=11" style="rounded=0;whiteSpace=wrap;html=1;" vertex="1" parent="1">
          <mxGeometry x="550" y="350" width="70" height="40" as="geometry" />
        </mxCell>
        <mxCell id="pSAityiDugNrzxSXsubv-20" value="document.write= promedio3" style="shape=document;whiteSpace=wrap;html=1;boundedLbl=1;" vertex="1" parent="1">
          <mxGeometry x="960" y="330" width="120" height="80" as="geometry" />
        </mxCell>
        <mxCell id="pSAityiDugNrzxSXsubv-21" value="" style="endArrow=classic;html=1;rounded=0;exitX=0.5;exitY=1;exitDx=0;exitDy=0;entryX=0.583;entryY=0.013;entryDx=0;entryDy=0;entryPerimeter=0;" edge="1" parent="1" target="pSAityiDugNrzxSXsubv-16">
          <mxGeometry width="50" height="50" relative="1" as="geometry">
            <mxPoint x="395" y="310" as="sourcePoint" />
            <mxPoint x="421" y="400" as="targetPoint" />
          </mxGeometry>
        </mxCell>
        <mxCell id="pSAityiDugNrzxSXsubv-23" value="" style="endArrow=classic;html=1;rounded=0;exitX=1;exitY=0.5;exitDx=0;exitDy=0;entryX=0;entryY=0.5;entryDx=0;entryDy=0;" edge="1" parent="1" source="pSAityiDugNrzxSXsubv-2" target="pSAityiDugNrzxSXsubv-22">
          <mxGeometry width="50" height="50" relative="1" as="geometry">
            <mxPoint x="580" y="190" as="sourcePoint" />
            <mxPoint x="960" y="190" as="targetPoint" />
          </mxGeometry>
        </mxCell>
        <mxCell id="pSAityiDugNrzxSXsubv-22" value="promedio=edades/5" style="rounded=0;whiteSpace=wrap;html=1;" vertex="1" parent="1">
          <mxGeometry x="707" y="160" width="120" height="60" as="geometry" />
        </mxCell>
        <mxCell id="pSAityiDugNrzxSXsubv-26" value="" style="endArrow=classic;html=1;rounded=0;exitX=1;exitY=0.5;exitDx=0;exitDy=0;entryX=0;entryY=0.5;entryDx=0;entryDy=0;" edge="1" parent="1" source="pSAityiDugNrzxSXsubv-19" target="pSAityiDugNrzxSXsubv-25">
          <mxGeometry width="50" height="50" relative="1" as="geometry">
            <mxPoint x="561" y="370" as="sourcePoint" />
            <mxPoint x="960" y="370" as="targetPoint" />
          </mxGeometry>
        </mxCell>
        <mxCell id="pSAityiDugNrzxSXsubv-25" value="promedio=edades/11" style="rounded=0;whiteSpace=wrap;html=1;" vertex="1" parent="1">
          <mxGeometry x="707" y="340" width="120" height="60" as="geometry" />
        </mxCell>
        <mxCell id="pSAityiDugNrzxSXsubv-27" value="" style="endArrow=classic;html=1;rounded=0;exitX=1;exitY=0.5;exitDx=0;exitDy=0;entryX=0;entryY=0.5;entryDx=0;entryDy=0;" edge="1" parent="1" source="pSAityiDugNrzxSXsubv-13" target="pSAityiDugNrzxSXsubv-24">
          <mxGeometry width="50" height="50" relative="1" as="geometry">
            <mxPoint x="570" y="280" as="sourcePoint" />
            <mxPoint x="960" y="280" as="targetPoint" />
          </mxGeometry>
        </mxCell>
        <mxCell id="pSAityiDugNrzxSXsubv-24" value="promedio=edades/6" style="rounded=0;whiteSpace=wrap;html=1;" vertex="1" parent="1">
          <mxGeometry x="700" y="250" width="120" height="60" as="geometry" />
        </mxCell>
        <mxCell id="pSAityiDugNrzxSXsubv-28" value="" style="endArrow=classic;html=1;rounded=0;exitX=0.997;exitY=0.415;exitDx=0;exitDy=0;exitPerimeter=0;" edge="1" parent="1" source="pSAityiDugNrzxSXsubv-4">
          <mxGeometry width="50" height="50" relative="1" as="geometry">
            <mxPoint x="580" y="280" as="sourcePoint" />
            <mxPoint x="490" y="480" as="targetPoint" />
            <Array as="points">
              <mxPoint x="1150" y="183" />
              <mxPoint x="1150" y="480" />
            </Array>
          </mxGeometry>
        </mxCell>
        <mxCell id="pSAityiDugNrzxSXsubv-29" value="" style="endArrow=none;html=1;rounded=0;" edge="1" parent="1">
          <mxGeometry width="50" height="50" relative="1" as="geometry">
            <mxPoint x="1080" y="280" as="sourcePoint" />
            <mxPoint x="1150" y="280" as="targetPoint" />
          </mxGeometry>
        </mxCell>
        <mxCell id="pSAityiDugNrzxSXsubv-30" value="" style="endArrow=none;html=1;rounded=0;" edge="1" parent="1">
          <mxGeometry width="50" height="50" relative="1" as="geometry">
            <mxPoint x="1080" y="360" as="sourcePoint" />
            <mxPoint x="1150" y="360" as="targetPoint" />
          </mxGeometry>
        </mxCell>
        <mxCell id="pSAityiDugNrzxSXsubv-31" value="math.max(promedio1,&lt;br&gt;promedio2,promedio3)" style="rounded=0;whiteSpace=wrap;html=1;" vertex="1" parent="1">
          <mxGeometry x="360" y="450" width="130" height="60" as="geometry" />
        </mxCell>
        <mxCell id="pSAityiDugNrzxSXsubv-32" value="" style="endArrow=classic;html=1;rounded=0;" edge="1" parent="1" target="pSAityiDugNrzxSXsubv-33">
          <mxGeometry width="50" height="50" relative="1" as="geometry">
            <mxPoint x="420" y="510" as="sourcePoint" />
            <mxPoint x="420" y="560" as="targetPoint" />
          </mxGeometry>
        </mxCell>
        <mxCell id="pSAityiDugNrzxSXsubv-33" value="document.write= el curso con edades mas altas es (math.max)" style="shape=document;whiteSpace=wrap;html=1;boundedLbl=1;" vertex="1" parent="1">
          <mxGeometry x="360" y="560" width="120" height="80" as="geometry" />
        </mxCell>
        <mxCell id="pSAityiDugNrzxSXsubv-34" value="" style="endArrow=classic;html=1;rounded=0;" edge="1" parent="1">
          <mxGeometry width="50" height="50" relative="1" as="geometry">
            <mxPoint x="420" y="634.5" as="sourcePoint" />
            <mxPoint x="420" y="700" as="targetPoint" />
          </mxGeometry>
        </mxCell>
        <mxCell id="pSAityiDugNrzxSXsubv-35" value="" style="endArrow=classic;html=1;rounded=0;" edge="1" parent="1">
          <mxGeometry width="50" height="50" relative="1" as="geometry">
            <mxPoint x="1150" y="480" as="sourcePoint" />
            <mxPoint x="1040" y="560" as="targetPoint" />
            <Array as="points">
              <mxPoint x="1150" y="560" />
            </Array>
          </mxGeometry>
        </mxCell>
        <mxCell id="pSAityiDugNrzxSXsubv-36" value="IF (promedio1&amp;lt;promedio2 &amp;amp;&amp;amp; promedio1&amp;lt;promedio3&lt;br&gt;doc.write( el mayot numero de edades es el turno mañana) else if (promedio2...&lt;br&gt;" style="rounded=0;whiteSpace=wrap;html=1;" vertex="1" parent="1">
          <mxGeometry x="750" y="540" width="290" height="110" as="geometry" />
        </mxCell>
        <mxCell id="pSAityiDugNrzxSXsubv-37" value="" style="endArrow=classic;html=1;rounded=0;" edge="1" parent="1">
          <mxGeometry width="50" height="50" relative="1" as="geometry">
            <mxPoint x="750" y="600" as="sourcePoint" />
            <mxPoint x="520" y="720" as="targetPoint" />
          </mxGeometry>
        </mxCell>
      </root>
    </mxGraphModel>
  </diagram>
</mxfile>
